<svg xmlns="http://www.w3.org/2000/svg" xmlns:xlink="http://www.w3.org/1999/xlink" width="977.438" height="198" viewBox="0 0 977.438 198">
  <defs>
    <filter id="Path_1282" x="0" y="34.056" width="71.252" height="89.85" filterUnits="userSpaceOnUse">
      <feOffset dy="3" input="SourceAlpha"/>
      <feGaussianBlur stdDeviation="3" result="blur"/>
      <feFlood flood-opacity="0.161"/>
      <feComposite operator="in" in2="blur"/>
      <feComposite in="SourceGraphic"/>
    </filter>
  </defs>
  <g id="Group_27011" data-name="Group 27011" transform="translate(-12700.062 -3402)">
    <g id="Group_27010" data-name="Group 27010" transform="translate(0 0.5)">
      <text id="SUN" transform="translate(12938.5 3528.5)" fill="#1b4978" stroke="#fff" stroke-width="3" font-size="135" font-family="ConthraxSb-Regular, Conthrax"><tspan x="0" y="0">SUN</tspan></text>
      <text id="ACE" transform="translate(13318.5 3528.5)" fill="#3b77bd" stroke="#fff" stroke-width="3" font-size="135" font-family="ConthraxSb-Regular, Conthrax"><tspan x="0" y="0">ACE</tspan></text>
      <text id="TECHNOLOGIES" transform="translate(13156.5 3582.5)" fill="#21344c" stroke="#fff" stroke-width="3" font-size="51" font-family="ConthraxSb-Regular, Conthrax"><tspan x="0" y="0">TECHNOLOGIES</tspan></text>
    </g>
    <g id="Group_27009" data-name="Group 27009" transform="translate(496 -72)">
      <g id="handshake" transform="translate(12213.062 3503)">
        <path id="Path_1278" data-name="Path 1278" d="M128.521,313.443a6.131,6.131,0,0,0,.557-8.648l-.337-.387a6.084,6.084,0,0,0-4.2-2.053h-.408a6.086,6.086,0,0,0-4.037,1.523l-8.214,7.211-7.481,6.566a6.14,6.14,0,0,0-.555,8.645l.343.393a6.137,6.137,0,0,0,8.651.557l5.75-5.046Z" transform="translate(-61.807 -212.699)" fill="#0e78e0"/>
        <path id="Path_1279" data-name="Path 1279" d="M106.7,328.059c-.17,0-.337,0-.508-.015a7.542,7.542,0,0,1-5.213-2.564l-.346-.4a7.61,7.61,0,0,1,.689-10.708l15.7-13.788a7.626,7.626,0,0,1,5.5-1.872,7.541,7.541,0,0,1,5.213,2.564l.481.56a7.586,7.586,0,0,1-.827,10.546l-15.7,13.788a7.52,7.52,0,0,1-5,1.883Zm15.325-26.4a4.662,4.662,0,0,0-3.069,1.173l-15.695,13.788a4.673,4.673,0,0,0-.419,6.577l.346.4a4.667,4.667,0,0,0,6.577.419l15.692-13.788a4.662,4.662,0,0,0,.423-6.574l-.343-.4a4.617,4.617,0,0,0-3.195-1.569Z" transform="translate(-59.71 -210.553)" fill="#fdfdfd"/>
        <path id="Path_1280" data-name="Path 1280" d="M199.005,366.414a6.107,6.107,0,0,0-4.04,1.519l-8.1,7.111a6.131,6.131,0,1,0,8.088,9.218l8.1-7.111a6.128,6.128,0,0,0-4.048-10.737Z" transform="translate(-110.263 -250.345)" fill="#0e78e0"/>
        <path id="Path_1281" data-name="Path 1281" d="M188.823,385.279a7.595,7.595,0,0,1-5.019-13.307l8.1-7.111a7.827,7.827,0,0,1,10.722.7,7.6,7.6,0,0,1-.7,10.725l-8.1,7.111A7.559,7.559,0,0,1,188.823,385.279Zm8.091-19.361a4.648,4.648,0,0,0-3.083,1.138l-8.1,7.111a4.668,4.668,0,0,0,6.161,7.014l8.1-7.1a4.661,4.661,0,0,0-3.08-8.167Z" transform="translate(-108.169 -248.376)" fill="#fdfdfd"/>
        <g transform="matrix(1, 0, 0, 1, -9, -29)" filter="url(#Path_1282)">
          <path id="Path_1282-2" data-name="Path 1282" d="M43.234,111.735,4.062,176.187l13.166,7.4,40.085-64.31Z" transform="translate(4.94 -71.68)" fill="#033c65"/>
        </g>
        <path id="Path_1284" data-name="Path 1284" d="M90.978,293.556a6.134,6.134,0,0,0,.563-8.654l-.106-.12a6.084,6.084,0,0,0-4.207-2.071h-.408a6.086,6.086,0,0,0-4.037,1.523l-9.837,8.613a6.213,6.213,0,0,0,8.117,9.406l.08-.068.745-.654,7.487-6.571Z" transform="translate(-43.318 -201.155)" fill="#0e78e0"/>
        <path id="Path_1285" data-name="Path 1285" d="M75.094,303.076a5.353,5.353,0,0,1-.572-.021,7.8,7.8,0,0,1-5.3-2.672,7.6,7.6,0,0,1,.7-10.722l9.825-8.622a7.678,7.678,0,0,1,10.13,11.541L80.052,301.2A7.464,7.464,0,0,1,75.094,303.076Zm9.654-20.993a4.648,4.648,0,0,0-3.069,1.173l-9.825,8.622a4.664,4.664,0,0,0-.429,6.582h0a4.877,4.877,0,0,0,3.309,1.684,4.556,4.556,0,0,0,3.377-1.132l9.822-8.622a4.667,4.667,0,0,0,.428-6.583,4.725,4.725,0,0,0-3.306-1.7Z" transform="translate(-41.245 -199.065)" fill="#fdfdfd"/>
        <path id="Path_1286" data-name="Path 1286" d="M165.94,341.238a6.088,6.088,0,0,0-1.511-4.445l-.088-.1a6.082,6.082,0,0,0-4.2-2.053h-.408a6.084,6.084,0,0,0-4.037,1.523l-.962.845-9.939,8.725-2.64,2.306a6.225,6.225,0,0,0,3.732,10.825,6.068,6.068,0,0,0,4.445-1.511l13.533-11.878A6.093,6.093,0,0,0,165.94,341.238Z" transform="translate(-84.012 -231.673)" fill="#0e78e0"/>
        <path id="Path_1287" data-name="Path 1287" d="M144.154,358.19c-.167,0-.332,0-.5-.015a7.666,7.666,0,0,1-4.606-13.392l13.521-11.893a7.665,7.665,0,0,1,5.5-1.872,7.53,7.53,0,0,1,5.207,2.558,7.6,7.6,0,0,1-.59,10.825L149.16,356.28a7.545,7.545,0,0,1-5.005,1.91Zm9.388-22.24-12.559,11.025a4.673,4.673,0,0,0-.44,6.586,4.732,4.732,0,0,0,3.289,1.675,4.617,4.617,0,0,0,3.391-1.153L160.756,342.2a4.662,4.662,0,0,0,.433-6.578l0,0a4.7,4.7,0,0,0-3.292-1.678h-.311a4.6,4.6,0,0,0-3.069,1.173Z" transform="translate(-81.87 -229.536)" fill="#fdfdfd"/>
        <path id="Path_1288" data-name="Path 1288" d="M198.371,219.359l-47.742-38.9c-18.282,9.708-31.228,4.711-37.418.76a6.976,6.976,0,0,1,.587-12.028l15.912-8.452c-.411-.061-.813-.114-1.173-.15a307.919,307.919,0,0,1-43.4,3.737L57.323,209.566l6.2,4.726,7.29-6.4a12.2,12.2,0,0,1,17.21,1.119l0,0,.106.12a12.094,12.094,0,0,1,2.8,5.9,11.958,11.958,0,0,1,7.534-2.053,12.112,12.112,0,0,1,8.372,4.125l.343.393a12.112,12.112,0,0,1,3,8.83v.018a12.3,12.3,0,0,1,1.681-.056,12.116,12.116,0,0,1,8.372,4.125l-2.192,2.1,2.279-2a12.117,12.117,0,0,1,3.007,8.836c0,.041-.018.079-.021.12a12.079,12.079,0,0,1,10.94,18.775l13.081,7.548a6.061,6.061,0,0,0,8.2-2.171,5.944,5.944,0,0,0-1.781-7.947l-20.829-14.433c-.018,0-.026-.032-.041-.044l-1.4-.971a3.033,3.033,0,0,1,3.453-4.987l29.377,20.351a5.97,5.97,0,0,0,8.307-1.506l0,0a5.993,5.993,0,0,0-1.467-8.264l-29.234-20.735c-.018,0-.024-.032-.041-.044a3.036,3.036,0,0,1,3.52-4.946l32.774,23.252a6.354,6.354,0,0,0,7.563-10.209L150.47,207.724a3.033,3.033,0,1,1,3.367-5.047c.052.035.1.071.154.11l2.411,1.719h.032l32.684,23.548c.061.044.106.1.164.144l.54.387a2.832,2.832,0,0,1,.293.232l.587.4a6.319,6.319,0,0,0,8.616-1.191,6.22,6.22,0,0,0,1.089-5.621,6.075,6.075,0,0,0-2.034-3.048Z" transform="translate(-35.362 -129.387)" fill="#033c65"/>
        <path id="Path_1289" data-name="Path 1289" d="M147.533,265.942a7.382,7.382,0,0,1-3.693-.989L129.4,256.624l.88-1.291a10.684,10.684,0,0,0-8.235-16.566,7.251,7.251,0,0,0-1.091.029l-1.968.123.114-1.669a10.714,10.714,0,0,0-1.731-6.721l-1.1.968-1.983-2.159,1.115-1.068a10.651,10.651,0,0,0-6.378-2.64,9.857,9.857,0,0,0-1.282.041l-1.576.118-.2-1.737v-.062a10.711,10.711,0,0,0-2.64-7.648l-.346-.4A10.623,10.623,0,0,0,89,214.14L87.129,215.4l-.393-2.218a10.77,10.77,0,0,0-17.71-6.3l-8.193,7.193L52.6,207.809l28.928-47.055.789-.023a307.5,307.5,0,0,0,43.162-3.711l.205-.041.208.018c.387.035.816.094,1.258.158l4.4.66-19.843,10.538a5.51,5.51,0,0,0-.478,9.511c5.823,3.717,18.25,8.56,35.934-.824l.86-.458,48.493,39.513a7.552,7.552,0,0,1,2.5,3.793,7.67,7.67,0,0,1-1.338,6.935,7.8,7.8,0,0,1-10.634,1.467l-1.646-1.229L150.366,201.83a1.561,1.561,0,0,0-2.178.357l0,.007a1.564,1.564,0,0,0,.359,2.182l0,0,35.271,25.431a7.821,7.821,0,0,1-9.27,12.594l-32.783-23.24a1.568,1.568,0,1,0-1.819,2.556l29.283,20.785a7.436,7.436,0,0,1-8.53,12.183l0,0-29.371-20.354a1.567,1.567,0,1,0-1.867,2.516c.028.021.057.041.087.06l22.278,15.448a7.434,7.434,0,0,1-2.259,13.31,7.671,7.671,0,0,1-2.03.275ZM133.5,255.6l11.8,6.812a4.529,4.529,0,0,0,4.846-7.627L133.5,243.232a13.568,13.568,0,0,1,1.467,7.12A13.216,13.216,0,0,1,133.5,255.6Zm-3.057-24.475a4.469,4.469,0,0,1,2.552.795l29.371,20.351a4.5,4.5,0,0,0,5.163-7.375l-29.442-20.9a4.5,4.5,0,0,1,5.371-7.217l32.783,23.252a4.887,4.887,0,0,0,5.818-7.85l-35.227-25.384a4.5,4.5,0,0,1,5.234-7.319l2.447,1.734L187.9,225.288a4.317,4.317,0,0,1,.428.352l.414.27a4.853,4.853,0,0,0,6.621-.88,4.765,4.765,0,0,0,.839-4.306,4.633,4.633,0,0,0-1.529-2.347l-47-38.3c-18.538,9.475-31.753,4.26-38.029.249a8.443,8.443,0,0,1,.7-14.574l8.995-4.776c-9.147,1.241-21.635,2.165-36.136,2.64l-26.7,43.446,4.2,3.195,6.392-5.609A13.659,13.659,0,0,1,86.378,205.9l0,0a13.845,13.845,0,0,1,2.752,4.761,13.226,13.226,0,0,1,6.686-1.3,13.574,13.574,0,0,1,9.388,4.623l.346.4a13.544,13.544,0,0,1,3.371,8.282h.293a13.571,13.571,0,0,1,8.446,3.687l.047-.041.795.91.085.094.924,1.053-.041.041a13.529,13.529,0,0,1,2.584,7.408h.179a13.721,13.721,0,0,1,3.814.8,4.491,4.491,0,0,1,4.4-5.512Z" transform="translate(-32.588 -127.267)" fill="#fff"/>
        <path id="Path_1290" data-name="Path 1290" d="M418.306,91.146l-30.762,23.827L416,161.257a2.9,2.9,0,0,1,.525.349,2.98,2.98,0,0,1,.833,1.86l4.263,6.932,13.154-7.4Z" transform="translate(-229.422 -88.579)" fill="#2680e3"/>
        <path id="Path_1291" data-name="Path 1291" d="M418.323,168.708l-5.178-8.425-.032-.34a1.524,1.524,0,0,0-.411-.962l-.563-.334-.173-.293L382.82,110.96l33.631-26.039,17.226,75.159Zm-2.347-9.405,3.362,5.465,10.98-6.161-15.7-68.556L386.7,111.667l27.576,44.852a2.7,2.7,0,0,1,.5.387,4.369,4.369,0,0,1,1.206,2.4Z" transform="translate(-226.646 -84.921)" fill="#1278e1"/>
        <path id="Path_1292" data-name="Path 1292" d="M269.353,161.772a27.037,27.037,0,0,1-18.746.681l-16.149-5.242a8.8,8.8,0,0,0-6.73.587l-5.474,2.907c-.059.029-.108.065-.17.091l-21.691,11.523a.921.921,0,0,0-.522.8.834.834,0,0,0,.39.771c6.38,4.072,17.308,7.041,32.953-1.936a3.039,3.039,0,0,1,3.426.279l49.308,40.19a11.7,11.7,0,0,1,1.848,1.91l12.192-12.2-25.983-42.262Z" transform="translate(-119.131 -127.162)" fill="#0e78e0"/>
        <path id="Path_1293" data-name="Path 1293" d="M285.6,214.454l-1.021-1.294a10.085,10.085,0,0,0-1.613-1.672l-49.32-40.179a1.582,1.582,0,0,0-1.76-.144c-16.285,9.353-27.734,6.2-34.473,1.9a2.292,2.292,0,0,1-1.065-2.083,2.375,2.375,0,0,1,1.305-2.024l27.326-14.512a10.267,10.267,0,0,1,7.868-.692l16.144,5.234a25.572,25.572,0,0,0,17.734-.64l5.817-2.382,27.242,44.3ZM232.642,168.02a4.519,4.519,0,0,1,2.848,1l49.311,40.19a11.169,11.169,0,0,1,.989.9l10.267-10.267-24.722-40.223-3.5,1.432a28.5,28.5,0,0,1-19.764.716l-16.135-5.24a7.334,7.334,0,0,0-5.6.5l-26.5,14.082c6.14,3.567,16.241,5.741,30.577-2.493a4.494,4.494,0,0,1,2.222-.6Z" transform="translate(-117.058 -125.09)" fill="#fff"/>
      </g>
    </g>
  </g>
</svg>
