<svg xmlns="http://www.w3.org/2000/svg" xmlns:xlink="http://www.w3.org/1999/xlink" width="913.863" height="184.278" viewBox="0 0 913.863 184.278">
  <defs>
    <filter id="Path_1282" x="0" y="31.589" width="67.706" height="85.067" filterUnits="userSpaceOnUse">
      <feOffset dy="3" input="SourceAlpha"/>
      <feGaussianBlur stdDeviation="3" result="blur"/>
      <feFlood flood-opacity="0.161"/>
      <feComposite operator="in" in2="blur"/>
      <feComposite in="SourceGraphic"/>
    </filter>
  </defs>
  <g id="Group_27021" data-name="Group 27021" transform="translate(-12569.2 -3495)">
    <g id="Group_27020" data-name="Group 27020">
      <g id="Group_27019" data-name="Group 27019">
        <text id="SUN" transform="translate(12792.363 3613)" fill="#1b4978" stroke="#fff" stroke-width="3" font-size="126" font-family="ConthraxSb-Regular, Conthrax"><tspan x="0" y="0">SUN</tspan></text>
        <text id="ACE" transform="translate(13147.063 3613)" fill="#3b77bd" stroke="#fff" stroke-width="3" font-size="126" font-family="ConthraxSb-Regular, Conthrax"><tspan x="0" y="0">ACE</tspan></text>
      </g>
      <text id="TECHNOLOGIES" transform="translate(12995.849 3663.278)" fill="#21344c" stroke="#fff" stroke-width="3" font-size="47" font-family="ConthraxSb-Regular, Conthrax"><tspan x="0" y="0">TECHNOLOGIES</tspan></text>
    </g>
    <g id="Group_27009" data-name="Group 27009" transform="translate(12578.2 3522.269)">
      <g id="handshake" transform="translate(0 0)">
        <path id="Path_1278" data-name="Path 1278" d="M126.777,312.7a5.723,5.723,0,0,0,.52-8.072l-.315-.361a5.679,5.679,0,0,0-3.924-1.917h-.381a5.681,5.681,0,0,0-3.768,1.421l-7.667,6.731-6.982,6.128a5.731,5.731,0,0,0-.518,8.07l.32.367a5.728,5.728,0,0,0,8.075.52l5.367-4.71Z" transform="translate(-64.505 -218.669)" fill="#0e78e0"/>
        <path id="Path_1279" data-name="Path 1279" d="M106.172,326.1c-.159,0-.315,0-.474-.014a7.04,7.04,0,0,1-4.866-2.393l-.323-.37a7.1,7.1,0,0,1,.644-9.995l14.655-12.87a7.118,7.118,0,0,1,5.137-1.747,7.039,7.039,0,0,1,4.866,2.393l.449.523a7.081,7.081,0,0,1-.772,9.844l-14.65,12.87A7.02,7.02,0,0,1,106.172,326.1Zm14.3-24.645a4.352,4.352,0,0,0-2.864,1.1l-14.65,12.87a4.362,4.362,0,0,0-.391,6.139l.323.369a4.357,4.357,0,0,0,6.139.391l14.647-12.87a4.351,4.351,0,0,0,.395-6.137l-.32-.37a4.31,4.31,0,0,0-2.982-1.465Z" transform="translate(-62.309 -216.422)" fill="#fdfdfd"/>
        <path id="Path_1280" data-name="Path 1280" d="M198.058,366.414a5.7,5.7,0,0,0-3.771,1.418l-7.561,6.638a5.723,5.723,0,1,0,7.549,8.6l7.561-6.638a5.72,5.72,0,0,0-3.779-10.022Z" transform="translate(-115.224 -258.073)" fill="#0e78e0"/>
        <path id="Path_1281" data-name="Path 1281" d="M188.317,383.8a7.089,7.089,0,0,1-4.685-12.421l7.563-6.638a7.306,7.306,0,0,1,10.008.652,7.1,7.1,0,0,1-.652,10.011l-7.561,6.638A7.056,7.056,0,0,1,188.317,383.8Zm7.552-18.072a4.339,4.339,0,0,0-2.878,1.062l-7.563,6.638a4.357,4.357,0,0,0,5.75,6.547l7.563-6.63a4.351,4.351,0,0,0-2.875-7.623Z" transform="translate(-113.032 -256.012)" fill="#fdfdfd"/>
        <g transform="matrix(1, 0, 0, 1, -9, -27.27)" filter="url(#Path_1282)">
          <path id="Path_1282-2" data-name="Path 1282" d="M40.626,111.735,4.062,171.9l12.29,6.906,37.416-60.028Z" transform="translate(4.94 -74.15)" fill="#033c65"/>
        </g>
        <path id="Path_1284" data-name="Path 1284" d="M89.638,292.833a5.726,5.726,0,0,0,.526-8.078l-.1-.112a5.679,5.679,0,0,0-3.927-1.933h-.381a5.681,5.681,0,0,0-3.768,1.421l-9.182,8.04a5.8,5.8,0,0,0,7.576,8.779l.075-.064.7-.611,6.988-6.134Z" transform="translate(-45.152 -206.585)" fill="#0e78e0"/>
        <path id="Path_1285" data-name="Path 1285" d="M74.577,301.483a5,5,0,0,1-.534-.019,7.279,7.279,0,0,1-4.945-2.494,7.092,7.092,0,0,1,.649-10.008l9.171-8.048a7.167,7.167,0,0,1,9.455,10.772L79.2,299.733A6.967,6.967,0,0,1,74.577,301.483Zm9.012-19.595a4.338,4.338,0,0,0-2.864,1.1l-9.171,8.048a4.354,4.354,0,0,0-.4,6.144h0a4.552,4.552,0,0,0,3.089,1.572,4.253,4.253,0,0,0,3.152-1.057l9.168-8.048a4.357,4.357,0,0,0,.4-6.145,4.41,4.41,0,0,0-3.086-1.585Z" transform="translate(-42.982 -204.397)" fill="#fdfdfd"/>
        <path id="Path_1286" data-name="Path 1286" d="M164.22,340.8a5.683,5.683,0,0,0-1.41-4.149l-.082-.093a5.677,5.677,0,0,0-3.918-1.917h-.381a5.679,5.679,0,0,0-3.768,1.421l-.9.789-9.278,8.144-2.464,2.152a5.811,5.811,0,0,0,3.483,10.1,5.664,5.664,0,0,0,4.149-1.41l12.632-11.087A5.687,5.687,0,0,0,164.22,340.8Z" transform="translate(-87.747 -238.528)" fill="#0e78e0"/>
        <path id="Path_1287" data-name="Path 1287" d="M143.642,356.38c-.156,0-.309,0-.465-.014a7.155,7.155,0,0,1-4.3-12.5l12.621-11.1a7.155,7.155,0,0,1,5.137-1.747,7.028,7.028,0,0,1,4.861,2.388,7.09,7.09,0,0,1-.55,10.1L148.314,354.6a7.043,7.043,0,0,1-4.672,1.783Zm8.763-20.759-11.723,10.291a4.362,4.362,0,0,0-.411,6.147,4.417,4.417,0,0,0,3.07,1.564,4.309,4.309,0,0,0,3.166-1.076l12.632-11.087a4.351,4.351,0,0,0,.4-6.14l0,0a4.382,4.382,0,0,0-3.073-1.566h-.29a4.291,4.291,0,0,0-2.864,1.1Z" transform="translate(-85.505 -236.292)" fill="#fdfdfd"/>
        <path id="Path_1288" data-name="Path 1288" d="M188.981,215.446l-44.563-36.313c-17.065,9.061-29.149,4.4-34.927.709a6.511,6.511,0,0,1,.548-11.227l14.852-7.889c-.383-.057-.759-.107-1.1-.14a287.418,287.418,0,0,1-40.508,3.489l-25.964,42.23,5.789,4.411,6.8-5.975a11.383,11.383,0,0,1,16.064,1.045l0,0,.1.112a11.289,11.289,0,0,1,2.618,5.51,11.162,11.162,0,0,1,7.032-1.917,11.305,11.305,0,0,1,7.815,3.85l.32.367a11.305,11.305,0,0,1,2.8,8.242v.017a11.484,11.484,0,0,1,1.569-.052,11.309,11.309,0,0,1,7.815,3.85l-2.046,1.961,2.128-1.867a11.31,11.31,0,0,1,2.807,8.248c0,.038-.017.074-.019.112a11.274,11.274,0,0,1,10.211,17.525l12.21,7.046a5.657,5.657,0,0,0,7.651-2.026,5.548,5.548,0,0,0-1.662-7.418l-19.442-13.472c-.017,0-.025-.03-.038-.041l-1.309-.906a2.831,2.831,0,0,1,3.223-4.655l27.421,19a5.572,5.572,0,0,0,7.754-1.406l0,0a5.594,5.594,0,0,0-1.369-7.714l-27.287-19.354c-.017,0-.022-.03-.038-.041a2.834,2.834,0,0,1,3.286-4.617l30.592,21.7a5.931,5.931,0,0,0,7.059-9.529l-32.917-23.719a2.831,2.831,0,1,1,3.143-4.711c.049.033.1.067.144.1l2.251,1.6h.03l30.507,21.98c.057.041.1.093.153.134l.5.361a2.644,2.644,0,0,1,.274.216l.548.375a5.9,5.9,0,0,0,8.042-1.112,5.806,5.806,0,0,0,1.016-5.247,5.671,5.671,0,0,0-1.9-2.845Z" transform="translate(-36.824 -131.465)" fill="#033c65"/>
        <path id="Path_1289" data-name="Path 1289" d="M141.213,258.687a6.89,6.89,0,0,1-3.447-.923l-13.481-7.774.821-1.2a9.973,9.973,0,0,0-7.686-15.463,6.768,6.768,0,0,0-1.019.027l-1.837.115.107-1.558a10,10,0,0,0-1.616-6.274l-1.027.9-1.851-2.015,1.041-1a9.942,9.942,0,0,0-5.953-2.464,9.2,9.2,0,0,0-1.2.038l-1.471.11-.184-1.621v-.058a10,10,0,0,0-2.464-7.139l-.323-.369a9.916,9.916,0,0,0-13.051-1.687l-1.744,1.172-.367-2.07a10.053,10.053,0,0,0-16.531-5.879l-7.648,6.714L52.6,204.425l27-43.922.737-.022a287.03,287.03,0,0,0,40.289-3.464l.192-.038.194.017c.361.033.761.088,1.175.148l4.107.616-18.522,9.836a5.143,5.143,0,0,0-.446,8.878c5.436,3.469,17.035,7.99,33.541-.769l.8-.427,45.264,36.882a7.049,7.049,0,0,1,2.336,3.541,7.159,7.159,0,0,1-1.249,6.473,7.281,7.281,0,0,1-9.926,1.369l-1.536-1.147-32.706-23.549a1.457,1.457,0,0,0-2.033.334l0,.006a1.46,1.46,0,0,0,.335,2.037l0,0,32.923,23.738a7.3,7.3,0,0,1-8.653,11.756l-30.6-21.693a1.464,1.464,0,1,0-1.7,2.385l27.334,19.4a6.941,6.941,0,0,1-7.962,11.372l0,0-27.416-19a1.462,1.462,0,1,0-1.743,2.348c.027.02.053.038.081.056l20.795,14.42a6.939,6.939,0,0,1-2.108,12.424,7.16,7.16,0,0,1-1.895.257Zm-13.094-9.653,11.016,6.358a4.228,4.228,0,0,0,4.523-7.12l-15.54-10.784a12.665,12.665,0,0,1,1.369,6.646,12.337,12.337,0,0,1-1.369,4.9Zm-2.853-22.845a4.171,4.171,0,0,1,2.382.742l27.416,19a4.2,4.2,0,0,0,4.819-6.884L132.4,219.529a4.2,4.2,0,0,1,5.014-6.736l30.6,21.7a4.562,4.562,0,0,0,5.43-7.328l-32.881-23.694a4.2,4.2,0,1,1,4.885-6.832l2.284,1.618,31.162,22.479a4.028,4.028,0,0,1,.4.329l.386.252a4.529,4.529,0,0,0,6.18-.821,4.448,4.448,0,0,0,.783-4.02,4.325,4.325,0,0,0-1.427-2.191l-43.87-35.746c-17.3,8.845-29.639,3.976-35.5.233a7.881,7.881,0,0,1,.655-13.6l8.4-4.458c-8.538,1.158-20.195,2.021-33.73,2.464L56.252,203.732l3.918,2.982,5.967-5.236a12.75,12.75,0,0,1,17.993,1.168l0,0a12.923,12.923,0,0,1,2.569,4.444,12.345,12.345,0,0,1,6.24-1.213A12.671,12.671,0,0,1,101.7,210.2l.323.369a12.642,12.642,0,0,1,3.146,7.73h.274a12.668,12.668,0,0,1,7.883,3.442l.044-.038.742.849.079.088.863.983-.038.038a12.628,12.628,0,0,1,2.412,6.914h.167a12.808,12.808,0,0,1,3.56.75,4.192,4.192,0,0,1,4.107-5.145Z" transform="translate(-33.921 -129.245)" fill="#fff"/>
        <path id="Path_1290" data-name="Path 1290" d="M416.258,91.146l-28.714,22.241,26.562,43.2a2.706,2.706,0,0,1,.49.326,2.781,2.781,0,0,1,.778,1.736l3.979,6.471,12.278-6.909Z" transform="translate(-239.95 -88.75)" fill="#2680e3"/>
        <path id="Path_1291" data-name="Path 1291" d="M415.959,163.13l-4.833-7.864-.03-.318a1.422,1.422,0,0,0-.383-.9l-.526-.312-.162-.274L382.82,109.226l31.392-24.305,16.079,70.155Zm-2.19-8.779,3.138,5.1,10.249-5.75L412.5,89.71l-26.055,20.176,25.74,41.866a2.522,2.522,0,0,1,.468.361,4.078,4.078,0,0,1,1.125,2.237Z" transform="translate(-237.044 -84.921)" fill="#1278e1"/>
        <path id="Path_1292" data-name="Path 1292" d="M264.727,161.441a25.237,25.237,0,0,1-17.5.635l-15.074-4.893a8.213,8.213,0,0,0-6.282.548l-5.11,2.714c-.055.027-.1.06-.159.085l-20.247,10.756a.859.859,0,0,0-.487.745.778.778,0,0,0,.364.72c5.956,3.8,16.156,6.572,30.759-1.807a2.837,2.837,0,0,1,3.2.26l46.025,37.515a10.924,10.924,0,0,1,1.725,1.783l11.38-11.389L269.07,159.665Z" transform="translate(-124.506 -129.135)" fill="#0e78e0"/>
        <path id="Path_1293" data-name="Path 1293" d="M279.654,210.381l-.953-1.208a9.414,9.414,0,0,0-1.506-1.561l-46.036-37.5a1.476,1.476,0,0,0-1.643-.134c-15.2,8.73-25.888,5.783-32.178,1.774a2.139,2.139,0,0,1-.994-1.944,2.217,2.217,0,0,1,1.219-1.889l25.507-13.546a9.584,9.584,0,0,1,7.344-.646l15.069,4.885a23.87,23.87,0,0,0,16.553-.6l5.43-2.223,25.428,41.348Zm-49.429-43.342a4.218,4.218,0,0,1,2.659.936l46.028,37.515a10.422,10.422,0,0,1,.923.841l9.584-9.584L266.343,159.2l-3.264,1.336a26.606,26.606,0,0,1-18.448.668l-15.061-4.891a6.845,6.845,0,0,0-5.225.466L199.61,169.925c5.731,3.33,15.159,5.359,28.541-2.327a4.2,4.2,0,0,1,2.074-.559Z" transform="translate(-122.336 -126.967)" fill="#fff"/>
      </g>
    </g>
  </g>
</svg>
