<svg xmlns="http://www.w3.org/2000/svg" width="128" height="128" viewBox="0 0 128 128">
  <g id="agreement" transform="translate(0 -0.4)">
    <g id="Group_246" data-name="Group 246" transform="translate(0.201 0.4)">
      <ellipse id="Ellipse_88" data-name="Ellipse 88" cx="63.899" cy="64" rx="63.899" ry="64" transform="translate(0 0)" fill="#84dbff"/>
      <ellipse id="Ellipse_89" data-name="Ellipse 89" cx="63.899" cy="64" rx="63.899" ry="64" transform="translate(0 0)" fill="#84dbff"/>
    </g>
    <g id="Group_247" data-name="Group 247" transform="translate(38.541 52.003)">
      <path id="Path_374" data-name="Path 374" d="M153.2,330.041a6.663,6.663,0,0,1,.1-1.411,8.314,8.314,0,0,1,1.509-3.326c.1-.1.2-.3.3-.4a.6.6,0,0,1,.4-.1h2.616c.2,0,.3.2.5.3a3.1,3.1,0,0,1,1.006,1.512,6.007,6.007,0,0,1-.4,3.729c-.2.5-.3,1.109-.5,1.613a3.58,3.58,0,0,1-.4.907,3.627,3.627,0,0,1-1.509,1.008,2.715,2.715,0,0,1-2.314.2,2.4,2.4,0,0,1-.906-1.31A8.106,8.106,0,0,1,153.2,330.041Z" transform="translate(-153.2 -294.665)" fill="#f9b54c"/>
      <path id="Path_375" data-name="Path 375" d="M247.853,223.846c-2.415,2.62-4.025,3.729-6.44,6.35-.906,1.008-2.013,2.116-3.421,2.116-.2,0-.5-.1-.7-.1a5.282,5.282,0,0,1-2.214-1.713c-2.516-2.721-4.931-5.745-7.849-8.063-3.119-2.52-6.943-4.132-9.862-6.954-1.208-1.209-3.22-1.109-4.83-1.31a4.594,4.594,0,0,0-3.522,1.209c-1.006.806-1.811,1.713-2.918,2.52a8.893,8.893,0,0,1-5.736,1.613,3.874,3.874,0,0,1-1.811-.6,1.437,1.437,0,0,1-.5-1.713,1.792,1.792,0,0,1,.7-.806c1.912-2.016,1.811-5.644,4.226-7.055a17.348,17.348,0,0,1,3.22-1.109,25.579,25.579,0,0,0,2.818-1.613,10.032,10.032,0,0,1,2.918-1.008,23.357,23.357,0,0,1,5.333-.4,18.848,18.848,0,0,1,5.333.6c1.308.4,2.516,1.008,3.925,1.31,2.013.4,4.025-.1,6.038-.4a1.383,1.383,0,0,1,1.107.1,2.2,2.2,0,0,1,.5.4c.6.6,1.308,1.209,1.912,1.814C240.708,213.364,245.438,218,247.853,223.846Z" transform="translate(-186.671 -205.2)" fill="#f9b54c"/>
      <path id="Path_376" data-name="Path 376" d="M247.853,223.846c-2.415,2.62-4.025,3.729-6.44,6.35-.906,1.008-2.013,2.116-3.421,2.116-.2,0-.5-.1-.7-.1a5.282,5.282,0,0,1-2.214-1.713c-2.516-2.721-4.931-5.745-7.849-8.063-3.119-2.52-6.943-4.132-9.862-6.954-1.208-1.209-3.22-1.109-4.83-1.31a4.594,4.594,0,0,0-3.522,1.209c-1.006.806-1.811,1.713-2.918,2.52a8.893,8.893,0,0,1-5.736,1.613,1.275,1.275,0,0,1-.6-.1,2.581,2.581,0,0,1-1.208-.5,1.437,1.437,0,0,1-.5-1.713,1.792,1.792,0,0,1,.7-.806,10.164,10.164,0,0,0,1.811-3.427,6.488,6.488,0,0,1,2.415-3.628,20.315,20.315,0,0,1,3.22-1.109,25.579,25.579,0,0,0,2.818-1.613,10.032,10.032,0,0,1,2.918-1.008,23.357,23.357,0,0,1,5.333-.4,18.848,18.848,0,0,1,5.333.6,25.623,25.623,0,0,0,3.925,1.31c2.013.4,4.025-.1,6.038-.4.4,0,.805-.1,1.107.1a2.2,2.2,0,0,1,.5.4c.6.6,1.308,1.209,1.912,1.814C240.708,213.364,245.438,218,247.853,223.846Z" transform="translate(-186.671 -205.2)" fill="#f9b54c"/>
      <path id="Path_377" data-name="Path 377" d="M247.853,223.846c-2.415,2.62-4.025,3.729-6.44,6.35-.906,1.008-2.013,2.117-3.421,2.117-.2,0-.5-.1-.7-.1a5.282,5.282,0,0,1-2.214-1.713c-2.516-2.721-4.931-5.745-7.849-8.063-3.119-2.52-6.943-4.132-9.862-6.954-1.208-1.209-3.22-1.109-4.83-1.31a4.594,4.594,0,0,0-3.522,1.209c-1.006.806-1.811,1.713-2.918,2.52a8.893,8.893,0,0,1-5.736,1.613,1.275,1.275,0,0,1-.6-.1,2.581,2.581,0,0,1-1.208-.5,1.437,1.437,0,0,1-.5-1.713v-.1c.1-.3.4-.5.6-.706a10.165,10.165,0,0,0,1.811-3.427c0-.1,0-.1.1-.2a6.746,6.746,0,0,1,2.314-3.427,20.315,20.315,0,0,1,3.22-1.109,25.578,25.578,0,0,0,2.818-1.613,10.031,10.031,0,0,1,2.918-1.008,23.356,23.356,0,0,1,5.333-.4,18.85,18.85,0,0,1,5.333.6,25.618,25.618,0,0,0,3.924,1.31c2.013.4,4.025-.1,6.038-.4.4,0,.805-.1,1.107.1a2.194,2.194,0,0,1,.5.4c.6.6,1.308,1.209,1.912,1.814C240.708,213.364,245.438,218,247.853,223.846Z" transform="translate(-186.671 -205.2)" fill="#f9b54c"/>
    </g>
    <g id="Group_248" data-name="Group 248" transform="translate(36.042 50.98)">
      <path id="Path_378" data-name="Path 378" d="M196.685,231.289a3.382,3.382,0,0,1-1.912,2.822,3.454,3.454,0,0,1-3.421-.2c.805,1.209,0,2.923-1.308,3.528a7.527,7.527,0,0,1-4.226.3,1.238,1.238,0,0,1,.3,1.613,2.7,2.7,0,0,1-1.509,1.008,8.182,8.182,0,0,1-4.126.1c.6.5.2,1.613-.4,2.116a7.29,7.29,0,0,1-6.541,1.613,19.331,19.331,0,0,1-6.44-2.822,28.552,28.552,0,0,0-6.34-3.124c-2.214-.6-4.629-.6-6.943-1.209-3.522-.907-6.44-3.326-9.157-5.644a4.742,4.742,0,0,1-1.308-1.512,3.407,3.407,0,0,1,.2-2.016,114.7,114.7,0,0,1,5.031-13.909,11.912,11.912,0,0,1,1.61-2.923c1.208-1.613,3.321-2.62,3.421-4.535a4.836,4.836,0,0,1,.7-2.016c.1-.2.3-.3.4-.5a1.429,1.429,0,0,1,.6-.2l6.642-1.814a15.356,15.356,0,0,1,5.233-.806,8.269,8.269,0,0,1,3.723,1.31,10.03,10.03,0,0,0-2.918,1.008c-1.006.5-1.811,1.209-2.818,1.613a17.347,17.347,0,0,0-3.22,1.109c-2.415,1.411-2.314,5.039-4.226,7.055-.2.3-.5.5-.7.806a1.437,1.437,0,0,0,.5,1.713,3.874,3.874,0,0,0,1.811.6,8.486,8.486,0,0,0,5.736-1.613c1.006-.706,1.912-1.713,2.918-2.52a4.593,4.593,0,0,1,3.522-1.209c1.711.2,3.623.1,4.83,1.31,2.918,2.822,6.642,4.535,9.862,6.954,2.918,2.318,5.333,5.342,7.849,8.063a5.989,5.989,0,0,0,2.214,1.713A3.4,3.4,0,0,1,196.685,231.289Z" transform="translate(-143.269 -201.138)" fill="#ffd05b"/>
      <path id="Path_379" data-name="Path 379" d="M196.685,231.588a3.382,3.382,0,0,1-1.912,2.822,3.439,3.439,0,0,1-2.818.1l-.6-.3a1.146,1.146,0,0,1,.3.806,2.981,2.981,0,0,1-1.61,2.721,7.35,7.35,0,0,1-3.623.4,1.275,1.275,0,0,1-.6-.1,1.241,1.241,0,0,1,.5,1.008,1.87,1.87,0,0,1-.2.706,2.7,2.7,0,0,1-1.509,1.008,7.8,7.8,0,0,1-4.025.1h-.1a.813.813,0,0,1,.3.907,2.152,2.152,0,0,1-.7,1.209,7.29,7.29,0,0,1-6.541,1.613,19.331,19.331,0,0,1-6.44-2.822,24.765,24.765,0,0,0-6.34-3.124c-2.214-.6-4.629-.6-6.943-1.209-3.522-.907-6.44-3.326-9.157-5.644a4.743,4.743,0,0,1-1.308-1.512,3.567,3.567,0,0,1,.2-2.016,114.708,114.708,0,0,1,5.031-13.909,11.912,11.912,0,0,1,1.61-2.923c1.208-1.613,3.321-2.62,3.421-4.535a4.835,4.835,0,0,1,.7-2.016c.1-.2.3-.3.4-.5a1.429,1.429,0,0,1,.6-.2l6.642-1.814a15.358,15.358,0,0,1,5.233-.806,8.269,8.269,0,0,1,3.723,1.31,10.031,10.031,0,0,0-2.918,1.008,25.571,25.571,0,0,1-2.818,1.613,17.35,17.35,0,0,0-3.22,1.109c-2.415,1.411-2.314,5.039-4.226,7.055-.2.3-.5.5-.7.806a1.437,1.437,0,0,0,.5,1.713,3.875,3.875,0,0,0,1.811.6,8.486,8.486,0,0,0,5.736-1.613c1.006-.706,1.912-1.713,2.918-2.52a4.594,4.594,0,0,1,3.522-1.209c1.711.2,3.623.1,4.83,1.31,2.918,2.822,6.642,4.435,9.862,6.954,2.918,2.318,5.333,5.342,7.849,8.063a5.99,5.99,0,0,0,2.214,1.713A3,3,0,0,1,196.685,231.588Z" transform="translate(-143.269 -201.438)" fill="#ffd05b"/>
    </g>
    <g id="Group_249" data-name="Group 249" transform="translate(49.006 72.847)">
      <path id="Path_380" data-name="Path 380" d="M194.8,346.734a5.9,5.9,0,0,1,.2-1.915,1.807,1.807,0,0,1,.5-.706A6.322,6.322,0,0,1,196.712,343a7.653,7.653,0,0,1,3.723-.6,1.274,1.274,0,0,1,.6.1c.4.2.7.706,1.107.907.1.1.3.2.4.3a1.1,1.1,0,0,1,.4.907,4.6,4.6,0,0,1-1.811,3.931,4.434,4.434,0,0,1-4.327.5,5.388,5.388,0,0,1-1.107-.5,3.061,3.061,0,0,1-.7-.5A4.482,4.482,0,0,1,194.8,346.734Z" transform="translate(-194.8 -328.673)" fill="#f9b54c"/>
      <path id="Path_381" data-name="Path 381" d="M235.348,351.529c-.4.2-.805.2-1.208.4a2.2,2.2,0,0,0-.5.3,3.908,3.908,0,0,1-1.509.2,6.59,6.59,0,0,1-2.013-.1,3.119,3.119,0,0,1-1.811-.907,2.747,2.747,0,0,1-.6-1.209,1.28,1.28,0,0,1-.1-.6,2.124,2.124,0,0,1,.5-1.31,6.663,6.663,0,0,1,2.214-1.512c.6-.3,1.107-.6,1.711-.907a8.912,8.912,0,0,1,1.711-.806,3.612,3.612,0,0,1,2.717.2,2.6,2.6,0,0,1,1.409,2.217,4.934,4.934,0,0,1-.805,2.318C236.455,350.521,236.053,351.226,235.348,351.529Z" transform="translate(-219.348 -330.545)" fill="#f9b54c"/>
      <path id="Path_382" data-name="Path 382" d="M255.341,367.832c-.1.2-.3.5-.4.705a3.311,3.311,0,0,1-1.308.705,10.081,10.081,0,0,1-2.415.4,3.233,3.233,0,0,1-2.113-1.008.916.916,0,0,1-.3-.705,1.537,1.537,0,0,1,.7-1.21c1.006-.806,2.314-1.008,3.22-1.814a4.377,4.377,0,0,1,.7-.6,1.276,1.276,0,0,1,.6-.1,1.96,1.96,0,0,1,1.308.1,2.061,2.061,0,0,1,.805.806A4.736,4.736,0,0,1,255.341,367.832Z" transform="translate(-235.215 -344.934)" fill="#f9b54c"/>
      <path id="Path_383" data-name="Path 383" d="M293.386,298.827a1.145,1.145,0,0,1,.3.806c-.3-.1-.5-.4-.805-.705-1.61-1.814-4.025-2.62-5.836-4.132-.6-.5-1.208-1.109-1.811-1.512-.5-.4-1.107-.706-1.711-1.109-.805-.5-1.61-1.209-2.415-1.814-.7-.6-1.509-1.31-1.509-2.217v-.1c0-.1.1-.1.2-.1a2.719,2.719,0,0,1,1.912.6c.5.4.906,1.008,1.409,1.512a25.77,25.77,0,0,0,4.428,3.628c1.409,1.008,2.818,1.915,4.226,2.923a10.167,10.167,0,0,1,1.61,1.31,3.777,3.777,0,0,1,.7,1.209A4.916,4.916,0,0,1,293.386,298.827Z" transform="translate(-258.267 -287.923)" fill="#f9b54c"/>
    </g>
    <path id="Path_384" data-name="Path 384" d="M122.147,226.934c.4-4.233,2.415-8.265,4.428-12.095,1.208-2.419,2.516-4.838,3.723-7.357a6.292,6.292,0,0,1,1.006-1.613,4.264,4.264,0,0,1,5.132-.907,2.292,2.292,0,0,1,.906.806,1.82,1.82,0,0,1,.2,1.008,13.789,13.789,0,0,1,0,3.528,9.7,9.7,0,0,1-1.107,2.822l-8.151,16.63a7.525,7.525,0,0,1-.7,1.209,3.189,3.189,0,0,1-4.528.2A5.172,5.172,0,0,1,122.147,226.934Z" transform="translate(-91.354 -152.657)" fill="#e6e9ee"/>
    <path id="Path_385" data-name="Path 385" d="M41.56,148.564a153.438,153.438,0,0,1-10.164,26.2,2.147,2.147,0,0,1-1.006,1.109,3.368,3.368,0,0,1-1.006,0c-2.113-.2-4.025,1.31-6.239,1.713-2.818.4-5.535-1.209-7.95-2.721A150.541,150.541,0,0,0,.4,166.6c-.2-2.318-.4-4.636-.4-6.954A64.077,64.077,0,0,1,8.553,127.6c2.013,1.109,3.925,2.318,5.937,3.427,1.61.907,3.22,1.915,4.83,2.822a50.93,50.93,0,0,1,7.447,5.039c1.711,1.411,3.321,3.124,5.535,3.528.906.1,1.811,0,2.717.1,1.912.2,3.623,1.512,5.132,2.721a3.461,3.461,0,0,1,1.308,1.613C41.862,147.354,41.66,147.959,41.56,148.564Z" transform="translate(0 -95.15)" fill="#324a5e"/>
    <path id="Path_386" data-name="Path 386" d="M341.53,196.573a1.587,1.587,0,0,1,.7-.705c.2-.1.4,0,.6,0,1.308.4,2.013,1.915,2.818,3.024a20.044,20.044,0,0,0,3.019,2.822c2.717,2.52,4.528,6.047,6.138,9.373.906,1.814,1.811,3.729,2.818,5.543,1.107,2.318,2.314,4.636,2.616,7.156-1.61-.3-3.421.5-4.83-.2a4.387,4.387,0,0,1-1.409-1.31,49.009,49.009,0,0,1-4.931-7.861c-1.208-2.419-2.315-5.039-4.428-6.753a25.313,25.313,0,0,1-2.415-1.915c-.4-.5-.7-1.109-1.107-1.613a20.985,20.985,0,0,0-4.327-5.14A5.814,5.814,0,0,0,341.53,196.573Z" transform="translate(-252.07 -146.182)" fill="#e6e9ee"/>
    <path id="Path_387" data-name="Path 387" d="M392.885,158.652c0,1.613-.1,3.124-.2,4.636a139.309,139.309,0,0,0-14.692,10.986c-.906.806-2.013,1.613-3.22,1.209a2.748,2.748,0,0,1-1.208-.907c-1.711-1.915-2.415-4.636-3.522-6.954a45.286,45.286,0,0,0-3.723-5.946l-11.874-16.428a1.888,1.888,0,0,1-.5-1.411c.1-.4.5-.6.805-.907,1.61-1.109,3.321-2.318,4.931-3.427a40.476,40.476,0,0,1,5.132-3.326,48.556,48.556,0,0,1,5.233-2.318A157.1,157.1,0,0,0,384.13,126.4,63.681,63.681,0,0,1,392.885,158.652Z" transform="translate(-264.885 -94.252)" fill="#324a5e"/>
    <g id="Group_250" data-name="Group 250" transform="translate(60.596 80.676)">
      <path id="Path_388" data-name="Path 388" d="M280.272,326.907c-.3-.2-.7-.4-1.006-.6-1.006-.6-2.013-1.31-3.019-2.016a6.094,6.094,0,0,1-1.006-.705c-1.509-1.008-3.019-1.915-4.528-2.923a7.4,7.4,0,0,1-1.912-1.613,4.672,4.672,0,0,1,3.421.907,19.455,19.455,0,0,1,2.818,2.217,21.254,21.254,0,0,0,2.717,1.814,13.329,13.329,0,0,1,2.013,1.209,6.086,6.086,0,0,1,.8.806,1.274,1.274,0,0,1-.6-.1A1.506,1.506,0,0,1,280.272,326.907Z" transform="translate(-261.773 -318.994)" fill="#f9b54c"/>
      <path id="Path_389" data-name="Path 389" d="M253.732,340.255l-3.019-1.209a10.148,10.148,0,0,1-1.509-.705A10.66,10.66,0,0,1,248,337.332c-1.811-1.512-3.925-3.023-6.239-2.923a1.083,1.083,0,0,1-.805-.2c-.2-.2,0-.6.2-.806a1.351,1.351,0,0,1,.906-.2,6.635,6.635,0,0,1,2.717.6c1.208.5,2.314,1.411,3.522,2.016a11.177,11.177,0,0,1,1.61.706,11.9,11.9,0,0,1,3.723,2.62h-.1A1.479,1.479,0,0,1,253.732,340.255Z" transform="translate(-240.869 -329.621)" fill="#f9b54c"/>
    </g>
    <g id="Group_251" data-name="Group 251" transform="translate(50.013 59.361)">
      <path id="Path_390" data-name="Path 390" d="M203.127,236.718a3.155,3.155,0,0,1-.5,1.008,5.994,5.994,0,0,1-2.113,1.814,2.365,2.365,0,0,1-.805.2.877.877,0,0,1-.805-.6c0-.1-.1-.2-.1-.3.1-.3.4-.5.6-.706a10.164,10.164,0,0,0,1.811-3.427c0-.1,0-.1.1-.2a.6.6,0,0,1,.4-.1c.2,0,.3.2.4.3A2.619,2.619,0,0,1,203.127,236.718Z" transform="translate(-198.8 -234.4)" fill="#fffeff"/>
      <path id="Path_391" data-name="Path 391" d="M250.724,347.515a1.228,1.228,0,0,1,.5-1.21,2.853,2.853,0,0,1,1.711-.706,1.648,1.648,0,0,1,1.509,1.008,2.874,2.874,0,0,1-.3,2.016,1.389,1.389,0,0,1-.3.4.753.753,0,0,1-.5.1,4.839,4.839,0,0,1-1.208,0,1.229,1.229,0,0,1-.906-.806" transform="translate(-237.642 -317.581)" fill="#fffeff"/>
      <path id="Path_392" data-name="Path 392" d="M268.41,364.8a1.485,1.485,0,0,0-1.006-.907,1.736,1.736,0,0,0-1.912,1.411.957.957,0,0,0,.4,1.109c.1,0,.2.1.3.1l2.013-.2A2.017,2.017,0,0,0,268.41,364.8Z" transform="translate(-248.687 -331.242)" fill="#fffeff"/>
    </g>
  </g>
</svg>
