<svg xmlns="http://www.w3.org/2000/svg" width="128" height="128" viewBox="0 0 128 128">
  <g id="Group_26813" data-name="Group 26813" transform="translate(-9886 -7384)">
    <g id="Group_26812" data-name="Group 26812">
      <circle id="Ellipse_92" data-name="Ellipse 92" cx="64" cy="64" r="64" transform="translate(9886 7384)" fill="#84dbff"/>
      <g id="recruitment" transform="translate(9913.885 7402.287)">
        <path id="Path_653" data-name="Path 653" d="M47.182,20.633a4.764,4.764,0,0,0-1.95,3.858,5.519,5.519,0,0,0,.043.647,5.047,5.047,0,0,1-.537,3.526,9.625,9.625,0,0,1-.826,1.941,10.266,10.266,0,0,0-1.013,4.54,2.181,2.181,0,0,1-4.309.289c-.4-1.916-1.031-5.016-.673-6.872a3.325,3.325,0,0,0-2.231-3.807,8.557,8.557,0,0,0-2.53-.358,6.562,6.562,0,0,0-4.173,1.235c-.434.375-3.483,3.364-3.312,4.65q-.053.753-.052,1.507a21.808,21.808,0,0,0,.818,5.979,11.613,11.613,0,0,1,.417,2.112,2.084,2.084,0,0,1-.979,1.924,2.141,2.141,0,0,1-1.175.349,2.163,2.163,0,0,1-1.95-1.226l-3.432-9.555c-.9-3.585.74-7.426,1.268-11.1C20.927,17.93,23,16.2,25.3,15.588c4.1-1.107,8.967-2.631,11.991-4.862l2.8-1.712Z" fill="#fcd462"/>
        <path id="Path_654" data-name="Path 654" d="M21.806,32.622c-.9-3.585.741-7.426,1.269-11.1.341-2.342,2.419-4.07,4.71-4.684,4.1-1.107,8.967-2.631,11.99-4.862l1.546-.944L40.088,9.017l-2.8,1.712c-3.024,2.231-7.9,3.755-11.991,4.862-2.291.614-4.369,2.342-4.71,4.684-.528,3.671-2.171,7.512-1.268,11.1l3.432,9.555A2.1,2.1,0,0,0,25.2,42.082Z" fill="#f7be56"/>
        <path id="Path_655" data-name="Path 655" d="M54.324,18.922l-4.969,3.036a1.155,1.155,0,0,1-1.587-.383l-8.3-13.569a1.154,1.154,0,0,1,.384-1.588l4.977-3.037a1.156,1.156,0,0,1,1.588.384L54.7,17.334a1.154,1.154,0,0,1-.379,1.588Z" fill="#9297ab"/>
        <path id="Path_656" data-name="Path 656" d="M48.756,22.627a1.654,1.654,0,0,1-1.415-.792l-8.3-13.568A1.656,1.656,0,0,1,39.6,5.991l4.976-3.036a1.658,1.658,0,0,1,2.276.55l8.286,13.569a1.656,1.656,0,0,1-.55,2.275l-4.969,3.036a1.644,1.644,0,0,1-.863.242ZM45.435,3.712a.66.66,0,0,0-.341.1L40.118,6.845a.654.654,0,0,0-.219.9l8.3,13.568a.655.655,0,0,0,.9.217l4.964-3.03a.655.655,0,0,0,.218-.9L46,4.026a.655.655,0,0,0-.565-.314Z" fill="#1b4877"/>
        <circle id="Ellipse_91" data-name="Ellipse 91" cx="7.275" cy="7.275" r="7.275" transform="translate(28.331 39.016)" fill="#89c5cd"/>
        <path id="Path_657" data-name="Path 657" d="M50.376,62.6v8.022H20.45V62.6a5.618,5.618,0,0,1,2.426-4.568,65.378,65.378,0,0,1,7.948-3.394,7.87,7.87,0,0,0,9.44.092,60.938,60.938,0,0,1,7.686,3.3,5.618,5.618,0,0,1,2.426,4.57Z" fill="#fff"/>
        <path id="Path_658" data-name="Path 658" d="M20.45,68H50.375v2.625H20.45Z" fill="#9297ab"/>
        <path id="Path_659" data-name="Path 659" d="M35.606,39.016a7.26,7.26,0,0,0-5.6,2.628A7.274,7.274,0,0,1,39.1,52.674a7.276,7.276,0,0,0-3.492-13.658Z" fill="#9297ab"/>
        <path id="Path_660" data-name="Path 660" d="M47.95,58.035a60.936,60.936,0,0,0-7.686-3.3A7.785,7.785,0,0,1,38,55.882V56.1a60.663,60.663,0,0,1,7.654,3.3,5.615,5.615,0,0,1,2.426,4.568V70.63h2.3V62.6A5.618,5.618,0,0,0,47.95,58.035Z" fill="#9297ab"/>
        <g id="Group_26811" data-name="Group 26811">
          <path id="Path_661" data-name="Path 661" d="M26.274,71.125a.5.5,0,0,1-.5-.5V62.582a.5.5,0,1,1,1,0v8.043A.5.5,0,0,1,26.274,71.125Z" fill="#323c6b"/>
          <path id="Path_662" data-name="Path 662" d="M44.552,71.125a.5.5,0,0,1-.5-.5V62.582a.5.5,0,0,1,1,0v8.043A.5.5,0,0,1,44.552,71.125Z" fill="#323c6b"/>
          <path id="Path_663" data-name="Path 663" d="M17.617,20.349a.449.449,0,0,1-.073-.006.5.5,0,0,1-.423-.567,9.248,9.248,0,0,1,5.613-6.965.5.5,0,1,1,.407.913,8.256,8.256,0,0,0-5.03,6.2.5.5,0,0,1-.494.425Z" fill="#1b4877"/>
          <path id="Path_664" data-name="Path 664" d="M25.25,12.991a.5.5,0,0,1-.134-.982c.291-.081.6-.17.905-.259l.167.472.113.487c-.31.091-.622.182-.917.264a.52.52,0,0,1-.134.018Z" fill="#1b4877"/>
          <path id="Path_665" data-name="Path 665" d="M53.376,65.625a.5.5,0,0,1-.5-.5V62.6a7.974,7.974,0,0,0-2.415-5.693.5.5,0,0,1,.7-.711,8.969,8.969,0,0,1,2.712,6.4v2.521a.5.5,0,0,1-.5.508Z" fill="#323c6b"/>
          <path id="Path_666" data-name="Path 666" d="M48.375,55.359a.5.5,0,0,1-.223-.052c-.182-.091-.374-.183-.571-.277a.5.5,0,1,1,.426-.9c.205.1.4.192.591.286a.5.5,0,0,1-.223.947Z" fill="#323c6b"/>
          <path id="Path_667" data-name="Path 667" d="M24.7,42.653a2.655,2.655,0,0,1-2.4-1.507l-3.454-9.6c-.674-2.666-.042-5.386.569-8.017.255-1.1.519-2.232.675-3.32a6.576,6.576,0,0,1,5.076-5.1c3.924-1.06,8.816-2.563,11.822-4.782l2.84-1.737a.5.5,0,0,1,.688.166l7.093,11.616a.5.5,0,0,1-.131.665,4.286,4.286,0,0,0-1.746,3.454,5.2,5.2,0,0,0,.039.59,5.575,5.575,0,0,1-.572,3.785,10.182,10.182,0,0,1-.851,1.986A9.715,9.715,0,0,0,43.4,35.1a2.677,2.677,0,0,1-2.669,2.564h-.08A2.679,2.679,0,0,1,38.1,35.54c-.371-1.775-1.06-5.073-.675-7.073a2.829,2.829,0,0,0-1.9-3.237A8.124,8.124,0,0,0,33.15,24.9a6.013,6.013,0,0,0-3.845,1.113c-.987.851-3.253,3.386-3.144,4.206-.03.591-.048,1.082-.048,1.573a21.3,21.3,0,0,0,.8,5.841,12.146,12.146,0,0,1,.435,2.2,2.6,2.6,0,0,1-1.207,2.391,2.656,2.656,0,0,1-1.441.432ZM39.923,9.7l-2.376,1.45c-3.1,2.294-8.11,3.835-12.12,4.919-1.93.516-4.021,2.038-4.346,4.273-.162,1.13-.431,2.286-.69,3.4-.585,2.515-1.189,5.115-.588,7.5l3.418,9.508a1.718,1.718,0,0,0,2.382.627,1.59,1.59,0,0,0,.754-1.456,11.131,11.131,0,0,0-.4-2.025,22.315,22.315,0,0,1-.837-6.115q0-.771.053-1.541c-.224-1.606,3.447-4.962,3.485-5a7,7,0,0,1,4.5-1.356,9.009,9.009,0,0,1,2.681.381,3.83,3.83,0,0,1,2.57,4.38c-.346,1.8.317,4.971.672,6.674a1.681,1.681,0,0,0,3.32-.22,10.663,10.663,0,0,1,1.077-4.75,9.048,9.048,0,0,0,.785-1.845.392.392,0,0,1,.047-.107,4.571,4.571,0,0,0,.471-3.205,6.179,6.179,0,0,1-.047-.714,5.3,5.3,0,0,1,1.794-3.972Z" fill="#1b4877"/>
          <path id="Path_668" data-name="Path 668" d="M35.6,54.066a7.775,7.775,0,1,1,7.776-7.775A7.775,7.775,0,0,1,35.6,54.066Zm0-14.55a6.775,6.775,0,1,0,6.776,6.776A6.775,6.775,0,0,0,35.6,39.516Z" fill="#1b4877"/>
          <path id="Path_669" data-name="Path 669" d="M50.376,71.125H20.45a.5.5,0,0,1-.5-.5V62.6a6.1,6.1,0,0,1,2.635-4.975,65.325,65.325,0,0,1,8.074-3.46.5.5,0,0,1,.47.076,7.371,7.371,0,0,0,8.838.086.5.5,0,0,1,.463-.07A61.216,61.216,0,0,1,48.209,57.6a6.115,6.115,0,0,1,2.667,5v8.021a.5.5,0,0,1-.5.5Zm-29.426-1H49.876V62.6a5.114,5.114,0,0,0-2.217-4.163,60.507,60.507,0,0,0-7.317-3.149,8.376,8.376,0,0,1-9.6-.09,63.135,63.135,0,0,0-7.6,3.261A5.1,5.1,0,0,0,20.95,62.6Z" fill="#1b4877"/>
        </g>
        <path id="Path_670" data-name="Path 670" d="M26.469,23.2a.65.65,0,0,1-.4-1.164,6.431,6.431,0,0,1,.743-.494.65.65,0,0,1,.645,1.129,5.176,5.176,0,0,0-.591.392.649.649,0,0,1-.4.137Z" fill="#fff"/>
        <path id="Path_671" data-name="Path 671" d="M36.07,21.805a.669.669,0,0,1-.134-.013,15.66,15.66,0,0,0-5.9-.025.65.65,0,1,1-.256-1.274,16.952,16.952,0,0,1,6.421.026.65.65,0,0,1-.133,1.286Z" fill="#fff"/>
      </g>
    </g>
  </g>
</svg>
