<svg xmlns="http://www.w3.org/2000/svg" width="128" height="128" viewBox="0 0 128 128">
  <g id="Group_26820" data-name="Group 26820" transform="translate(-9809 -7081)">
    <g id="airplane" transform="translate(9809 7081)">
      <circle id="Ellipse_90" data-name="Ellipse 90" cx="64" cy="64" r="64" fill="#84dbff"/>
    </g>
    <g id="outsourcing" transform="translate(9841 7113)">
      <g id="Group_26815" data-name="Group 26815">
        <path id="Path_691" data-name="Path 691" d="M8.909,46a27.007,27.007,0,0,0,46.182,0Z" fill="#f0bc5e"/>
      </g>
      <g id="Group_26816" data-name="Group 26816">
        <path id="Path_692" data-name="Path 692" d="M40,37h6v6H40Z" fill="#f0bc5e"/>
      </g>
      <g id="Group_26817" data-name="Group 26817">
        <path id="Path_693" data-name="Path 693" d="M20,33h6V43H20Z" fill="#f0bc5e"/>
      </g>
      <g id="Group_26818" data-name="Group 26818">
        <path id="Path_694" data-name="Path 694" d="M32,25H29v2h3V42h2V31h4V25Z" fill="#f0bc5e"/>
      </g>
      <g id="Group_26819" data-name="Group 26819">
        <path id="Path_695" data-name="Path 695" d="M50,33H42V21H24v8H16V45H3.807l.776,1.468a31,31,0,0,0,54.834,0L60.193,45H50ZM48,45H38V35H48ZM32,61c-1.874,0-3.766-2.237-5.325-6h10.65c-1.559,3.763-3.451,6-5.325,6Zm7.49-6H49.658a28.881,28.881,0,0,1-13.343,5.667A19.068,19.068,0,0,0,39.49,55Zm-11.8,5.667A28.9,28.9,0,0,1,14.343,55H24.51A19.047,19.047,0,0,0,27.686,60.667ZM25.927,53a47.681,47.681,0,0,1-1.563-6H39.635a47.511,47.511,0,0,1-1.563,6ZM26,23H40V33H36V45H30V29H26Zm-8,8H28V45H18ZM7.182,47H22.329a51.838,51.838,0,0,0,1.481,6H12a29.049,29.049,0,0,1-4.821-6Zm49.636,0A29.053,29.053,0,0,1,52,53H40.189a51.838,51.838,0,0,0,1.481-6H56.818Z" fill="#1b4877"/>
        <path id="Path_696" data-name="Path 696" d="M12,23A11,11,0,1,0,1,12,11.013,11.013,0,0,0,12,23ZM6.368,19.009a5.961,5.961,0,0,1,11.264,0,8.961,8.961,0,0,1-11.264,0ZM9,10a3,3,0,1,1,3,3A3,3,0,0,1,9,10Zm3-7a8.983,8.983,0,0,1,7.153,14.44,7.966,7.966,0,0,0-3.841-3.723,5,5,0,1,0-6.624,0A7.966,7.966,0,0,0,4.847,17.44,8.983,8.983,0,0,1,12,3Z" fill="#1b4877"/>
        <path id="Path_697" data-name="Path 697" d="M52,23A11,11,0,1,0,41,12,11.013,11.013,0,0,0,52,23Zm-5.632-3.991a5.961,5.961,0,0,1,11.264,0,8.961,8.961,0,0,1-11.264,0ZM49,10a3,3,0,1,1,3,3A3,3,0,0,1,49,10Zm3-7a8.983,8.983,0,0,1,7.153,14.44,7.966,7.966,0,0,0-3.841-3.723,5,5,0,1,0-6.624,0,7.966,7.966,0,0,0-3.841,3.723A8.983,8.983,0,0,1,52,3Z" fill="#1b4877"/>
        <path id="Path_698" data-name="Path 698" d="M31,6.414V15h2V6.414l3.293,3.293,1.414-1.414L32,2.586,26.293,8.293l1.414,1.414Z" fill="#1b4877"/>
        <path id="Path_699" data-name="Path 699" d="M31,17h2v2H31Z" fill="#1b4877"/>
        <path id="Path_700" data-name="Path 700" d="M54.293,25.707,57.586,29H48v2h9.586l-3.293,3.293,1.414,1.414L61.414,30l-5.707-5.707Z" fill="#1b4877"/>
        <path id="Path_701" data-name="Path 701" d="M9.707,34.293,6.414,31H14V29H6.414l3.293-3.293L8.293,24.293,2.586,30l5.707,5.707Z" fill="#1b4877"/>
        <path id="Path_702" data-name="Path 702" d="M32,33h2v2H32Z" fill="#1b4877"/>
        <path id="Path_703" data-name="Path 703" d="M32,41h2v2H32Z" fill="#1b4877"/>
        <path id="Path_704" data-name="Path 704" d="M32,37h2v2H32Z" fill="#1b4877"/>
        <path id="Path_705" data-name="Path 705" d="M32,29h2v2H32Z" fill="#1b4877"/>
        <path id="Path_706" data-name="Path 706" d="M32,25h2v2H32Z" fill="#1b4877"/>
        <path id="Path_707" data-name="Path 707" d="M36,29h2v2H36Z" fill="#1b4877"/>
        <path id="Path_708" data-name="Path 708" d="M36,25h2v2H36Z" fill="#1b4877"/>
        <path id="Path_709" data-name="Path 709" d="M28,25h2v2H28Z" fill="#1b4877"/>
        <path id="Path_710" data-name="Path 710" d="M24,33h2v2H24Z" fill="#1b4877"/>
        <path id="Path_711" data-name="Path 711" d="M20,33h2v2H20Z" fill="#1b4877"/>
        <path id="Path_712" data-name="Path 712" d="M24,37h2v2H24Z" fill="#1b4877"/>
        <path id="Path_713" data-name="Path 713" d="M20,37h2v2H20Z" fill="#1b4877"/>
        <path id="Path_714" data-name="Path 714" d="M24,41h2v2H24Z" fill="#1b4877"/>
        <path id="Path_715" data-name="Path 715" d="M20,41h2v2H20Z" fill="#1b4877"/>
        <path id="Path_716" data-name="Path 716" d="M44,37h2v2H44Z" fill="#1b4877"/>
        <path id="Path_717" data-name="Path 717" d="M40,37h2v2H40Z" fill="#1b4877"/>
        <path id="Path_718" data-name="Path 718" d="M44,41h2v2H44Z" fill="#1b4877"/>
        <path id="Path_719" data-name="Path 719" d="M40,41h2v2H40Z" fill="#1b4877"/>
      </g>
    </g>
  </g>
</svg>
