<svg id="airplane" xmlns="http://www.w3.org/2000/svg" width="128" height="128" viewBox="0 0 128 128">
  <g id="Circle_Grid" data-name="Circle Grid">
    <circle id="Ellipse_90" data-name="Ellipse 90" cx="64" cy="64" r="64" fill="#84dbff"/>
  </g>
  <g id="icon">
    <path id="Path_633" data-name="Path 633" d="M69.713,73.545a8,8,0,0,0-3.189-.618c-2.831,0-5.126,1.273-5.126,2.844s2.295,2.843,5.126,2.843A8.016,8.016,0,0,0,69.713,78a1.318,1.318,0,0,0,.783-1.206V74.75a1.316,1.316,0,0,0-.783-1.205Z" fill="#d5d6db"/>
    <path id="Path_634" data-name="Path 634" d="M74.934,50.717a5.8,5.8,0,0,0-2.313-.448c-2.052,0-3.717.923-3.717,2.062s1.665,2.062,3.717,2.062a5.813,5.813,0,0,0,2.313-.448.955.955,0,0,0,.567-.875V51.591a.953.953,0,0,0-.567-.874Z" fill="#d5d6db"/>
    <path id="Path_635" data-name="Path 635" d="M66,45.46a.728.728,0,0,0-.492-.191H60.7a.729.729,0,0,0-.678,1L65.19,59.392H81.228Z" fill="#fe7058"/>
    <path id="Path_636" data-name="Path 636" d="M104.456,70.383H59.1L34.939,65.138,23.788,60.163V57.2l75.2.772a12.744,12.744,0,0,1,6.376,1.769,11.731,11.731,0,0,1,2.313,1.81,9.1,9.1,0,0,1,1.564,2.071c.466.857,1.694,1.811,1.718,2.858,0,0-.8,4.15-6.5,3.9Z" fill="#e1e6e9"/>
    <path id="Path_637" data-name="Path 637" d="M60.761,66.1,33.519,83.813a.778.778,0,0,0,.424,1.431H38.86a6.927,6.927,0,0,0,2.752-.569L87.757,65.5Z" fill="#fe7058"/>
    <path id="Path_638" data-name="Path 638" d="M25.144,43.16a.965.965,0,0,0-.786-.4H20.44a.966.966,0,0,0-.92,1.264L23.79,57.2l11.481.119Z" fill="#fe7058"/>
    <path id="Path_639" data-name="Path 639" d="M25.334,59.392l-8.162,3.954a.239.239,0,0,0,.1.453h3.811a.236.236,0,0,0,.087-.017l11.23-4.39Z" fill="#fe7058"/>
    <path id="Path_640" data-name="Path 640" d="M107.681,61.554a11.731,11.731,0,0,0-2.313-1.81,9,9,0,0,0-3.524,3.02.576.576,0,0,0,.5.861h6.9a9.1,9.1,0,0,0-1.563-2.071Z" fill="#3a556a"/>
    <path id="Path_641" data-name="Path 641" d="M92.8,60.353h4.263v7.8H92.8Z" fill="#d5d6db"/>
    <g id="Group_26810" data-name="Group 26810">
      <path id="Path_642" data-name="Path 642" d="M89.155,61.305a.94.94,0,0,0-.94.939v.842a.94.94,0,1,0,1.879,0v-.842a.939.939,0,0,0-.939-.939Z" fill="#3a556a"/>
      <path id="Path_643" data-name="Path 643" d="M84.917,61.305a.94.94,0,0,0-.94.939v.842a.94.94,0,1,0,1.879,0v-.842a.939.939,0,0,0-.939-.939Z" fill="#3a556a"/>
      <path id="Path_644" data-name="Path 644" d="M80.679,61.305a.94.94,0,0,0-.94.939v.842a.94.94,0,1,0,1.879,0v-.842a.939.939,0,0,0-.939-.939Z" fill="#3a556a"/>
      <path id="Path_645" data-name="Path 645" d="M76.441,61.305a.94.94,0,0,0-.94.939v.842a.94.94,0,1,0,1.879,0v-.842a.939.939,0,0,0-.939-.939Z" fill="#3a556a"/>
      <path id="Path_646" data-name="Path 646" d="M72.2,61.305a.94.94,0,0,0-.94.939v.842a.94.94,0,1,0,1.879,0v-.842a.939.939,0,0,0-.939-.939Z" fill="#3a556a"/>
      <path id="Path_647" data-name="Path 647" d="M67.965,61.305a.94.94,0,0,0-.94.939v.842a.94.94,0,1,0,1.879,0v-.842a.939.939,0,0,0-.939-.939Z" fill="#3a556a"/>
      <path id="Path_648" data-name="Path 648" d="M63.727,61.305a.94.94,0,0,0-.94.939v.842a.94.94,0,1,0,1.879,0v-.842a.939.939,0,0,0-.939-.939Z" fill="#3a556a"/>
      <path id="Path_649" data-name="Path 649" d="M59.489,61.305a.94.94,0,0,0-.94.939v.842a.94.94,0,1,0,1.879,0v-.842a.939.939,0,0,0-.939-.939Z" fill="#3a556a"/>
      <path id="Path_650" data-name="Path 650" d="M55.251,61.305a.94.94,0,0,0-.94.939v.842a.94.94,0,1,0,1.879,0v-.842a.939.939,0,0,0-.939-.939Z" fill="#3a556a"/>
      <path id="Path_651" data-name="Path 651" d="M51.013,61.305a.94.94,0,0,0-.94.939v.842a.94.94,0,1,0,1.879,0v-.842a.939.939,0,0,0-.939-.939Z" fill="#3a556a"/>
      <path id="Path_652" data-name="Path 652" d="M46.775,61.305a.94.94,0,0,0-.94.939v.842a.94.94,0,1,0,1.879,0v-.842a.939.939,0,0,0-.939-.939Z" fill="#3a556a"/>
    </g>
  </g>
</svg>
